<svg width="26" height="26" viewBox="0 0 26 26" fill="none" xmlns="http://www.w3.org/2000/svg">
<path d="M5.41683 16.25C4.3985 16.25 3.456 16.6075 2.7085 17.2033C1.71183 17.9942 1.0835 19.2183 1.0835 20.5833C1.0835 21.3958 1.311 22.165 1.71183 22.815C2.45933 24.0717 3.83516 24.9167 5.41683 24.9167C6.511 24.9167 7.50767 24.5158 8.266 23.8333C8.60183 23.5517 8.89433 23.205 9.12183 22.815C9.52266 22.165 9.75016 21.3958 9.75016 20.5833C9.75016 18.1892 7.811 16.25 5.41683 16.25ZM7.65934 20.1175L5.35183 22.2516C5.20017 22.3925 4.99432 22.4683 4.79932 22.4683C4.59349 22.4683 4.38766 22.3925 4.22516 22.23L3.15267 21.1575C2.8385 20.8434 2.8385 20.3233 3.15267 20.0091C3.46683 19.695 3.98683 19.695 4.301 20.0091L4.82099 20.5292L6.55433 18.9258C6.87933 18.6225 7.39933 18.6442 7.70266 18.9692C8.006 19.2942 7.98434 19.8142 7.65934 20.1175Z" fill="#F49A40"/>
<path opacity="0.4" d="M21.1035 14.0291H23.2918V12.4691C23.2918 10.2266 21.461 8.39575 19.2185 8.39575H6.78182C4.53932 8.39575 2.7085 10.2266 2.7085 12.4691V17.2033C3.456 16.6074 4.3985 16.2499 5.41683 16.2499C7.811 16.2499 9.75016 18.1891 9.75016 20.5833C9.75016 21.3958 9.52266 22.1649 9.12183 22.8149C8.89433 23.2049 8.60183 23.5516 8.266 23.8333H19.2185C21.461 23.8333 23.2918 22.0024 23.2918 19.7599V18.4707H21.2335C20.0635 18.4707 18.991 17.6149 18.8935 16.4449C18.8285 15.7624 19.0885 15.1232 19.5435 14.6791C19.9443 14.2674 20.4968 14.0291 21.1035 14.0291Z" fill="#F49A40"/>
<path d="M16.0877 4.27918V8.39583H6.78182C4.53932 8.39583 2.7085 10.2267 2.7085 12.4692V8.49336C2.7085 7.20419 3.49933 6.05581 4.70183 5.60081L13.3035 2.35081C14.6468 1.85248 16.0877 2.83834 16.0877 4.27918Z" fill="#F49A40"/>
<path d="M24.4398 15.1343V17.366C24.4398 17.9618 23.9632 18.4493 23.3565 18.4709H21.2332C20.0632 18.4709 18.9907 17.6151 18.8932 16.4451C18.8282 15.7626 19.0882 15.1234 19.5432 14.6793C19.944 14.2676 20.4965 14.0293 21.1032 14.0293H23.3565C23.9632 14.051 24.4398 14.5384 24.4398 15.1343Z" fill="#F49A40"/>
<path d="M15.1668 13.8125H7.5835C7.13933 13.8125 6.771 13.4442 6.771 13C6.771 12.5558 7.13933 12.1875 7.5835 12.1875H15.1668C15.611 12.1875 15.9793 12.5558 15.9793 13C15.9793 13.4442 15.611 13.8125 15.1668 13.8125Z" fill="#F49A40"/>
</svg>
