<svg width="68" height="68" viewBox="0 0 68 68" fill="none" xmlns="http://www.w3.org/2000/svg">
<circle cx="34" cy="34" r="33.5" fill="white" stroke="#DFDFDF"/>
<path d="M51.8581 32.3012L51.8566 32.2996L43.0075 23.4932C42.3445 22.8334 41.2723 22.8359 40.6124 23.4989C39.9526 24.1619 39.9551 25.2341 40.6181 25.8939L46.5594 31.8065H16.6935C15.7582 31.8065 15 32.5647 15 33.5C15 34.4353 15.7582 35.1936 16.6935 35.1936H46.5593L40.6181 41.1061C39.9552 41.7659 39.9527 42.8381 40.6125 43.5011C41.2724 44.1642 42.3447 44.1665 43.0076 43.5068L51.8567 34.7004L51.8582 34.6988C52.5215 34.0368 52.5194 32.961 51.8581 32.3012Z" fill="black"/>
</svg>
