<svg width="8" height="13" viewBox="0 0 8 13" fill="none" xmlns="http://www.w3.org/2000/svg">
<path d="M0.946796 0.000159234C0.763597 -0.00340019 0.58387 0.0527917 0.432488 0.160959C0.281105 0.269127 0.165552 0.423922 0.101818 0.603924C0.0380833 0.783925 0.0293194 0.980233 0.0767391 1.16568C0.124159 1.35113 0.225418 1.51655 0.366503 1.63906L5.76591 6.48236L0.363167 11.3257C0.264464 11.4011 0.181748 11.4971 0.120238 11.6076C0.0587288 11.7182 0.0197616 11.8409 0.00579587 11.9681C-0.00816986 12.0952 0.00316935 12.224 0.0390976 12.3464C0.0750258 12.4687 0.134763 12.5819 0.214539 12.6788C0.294316 12.7757 0.392399 12.8542 0.502599 12.9094C0.612799 12.9646 0.732723 12.9953 0.854803 12.9995C0.976882 13.0037 1.09847 12.9813 1.21188 12.9338C1.3253 12.8863 1.42808 12.8147 1.51375 12.7234L7.69022 7.19173C7.78735 7.1048 7.86535 6.99683 7.91883 6.87528C7.97231 6.75372 8 6.62146 8 6.4876C8 6.35375 7.97231 6.22149 7.91883 6.09993C7.86535 5.97837 7.78735 5.87041 7.69022 5.78347L1.51375 0.234287C1.35723 0.088283 1.1563 0.00530436 0.946796 0.000159234Z" fill="white"/>
</svg>
