<svg width="57" height="57" viewBox="0 0 57 57" fill="none" xmlns="http://www.w3.org/2000/svg">
<circle cx="28.5" cy="28.5" r="28.5" fill="#284D4F"/>
<path d="M37.8851 32.0618C37.188 31.337 36.3472 30.9495 35.4561 30.9495C34.5721 30.9495 33.7242 31.3298 32.9983 32.0546L30.7274 34.315C30.5406 34.2146 30.3537 34.1213 30.1741 34.028C29.9154 33.8988 29.671 33.7768 29.4626 33.6477C27.3355 32.2986 25.4023 30.5405 23.5482 28.2657C22.6499 27.1319 22.0463 26.1775 21.6079 25.2088C22.1972 24.6706 22.7434 24.1109 23.2752 23.5727C23.4764 23.3717 23.6776 23.1636 23.8788 22.9627C25.388 21.4558 25.388 19.5039 23.8788 17.997L21.9169 16.0379C21.6942 15.8155 21.4642 15.5858 21.2486 15.3562C20.8174 14.9113 20.3647 14.452 19.8976 14.0215C19.2005 13.3326 18.3669 12.9666 17.4901 12.9666C16.6134 12.9666 15.7654 13.3326 15.0468 14.0215L15.0324 14.0358L12.589 16.4972C11.6692 17.4157 11.1446 18.5352 11.0296 19.834C10.8571 21.9294 11.4751 23.8812 11.9494 25.1585C13.1136 28.2944 14.8527 31.2007 17.447 34.315C20.5946 38.068 24.3819 41.0317 28.7081 43.1199C30.3609 43.9021 32.5671 44.8278 35.0321 44.9856C35.183 44.9928 35.3411 45 35.4848 45C37.1449 45 38.539 44.4044 39.6314 43.2204C39.6385 43.206 39.6529 43.1988 39.6601 43.1845C40.0338 42.7324 40.465 42.3234 40.9177 41.8856C41.2267 41.5914 41.5429 41.2829 41.8519 40.96C42.5634 40.2208 42.9371 39.3597 42.9371 38.4771C42.9371 37.5873 42.5562 36.7333 41.8304 36.0157L37.8851 32.0618ZM40.4578 39.618C40.4506 39.6252 40.4506 39.618 40.4578 39.618C40.1775 39.9194 39.8901 40.1921 39.5811 40.4935C39.1139 40.9384 38.6396 41.4049 38.1941 41.9287C37.4683 42.7037 36.6131 43.0697 35.492 43.0697C35.3842 43.0697 35.2692 43.0697 35.1614 43.0625C33.0271 42.9262 31.0436 42.0937 29.5561 41.3833C25.4886 39.4171 21.9169 36.6257 18.949 33.0879C16.4984 30.1386 14.8599 27.4118 13.7748 24.484C13.1064 22.6972 12.8621 21.3051 12.9699 19.9919C13.0418 19.1523 13.3651 18.4562 13.9616 17.8606L16.4122 15.4136C16.7643 15.0835 17.138 14.9041 17.5045 14.9041C17.9572 14.9041 18.3237 15.1768 18.5537 15.4064L18.5753 15.428C19.0136 15.837 19.4304 16.2604 19.8688 16.7125C20.0916 16.9421 20.3216 17.1717 20.5515 17.4085L22.5134 19.3676C23.2752 20.1282 23.2752 20.8314 22.5134 21.5921C22.305 21.8002 22.1038 22.0083 21.8954 22.2092C21.2917 22.8264 20.7168 23.4004 20.0916 23.9602C20.0772 23.9745 20.0628 23.9817 20.0557 23.996C19.4376 24.6132 19.5526 25.2159 19.682 25.625L19.7035 25.6896C20.2138 26.9238 20.9324 28.0863 22.0247 29.4713L22.0319 29.4785C24.0154 31.9183 26.1066 33.8199 28.4134 35.2766C28.7081 35.4632 29.0099 35.6139 29.2973 35.7574C29.5561 35.8866 29.8004 36.0086 30.0088 36.1377C30.0375 36.1521 30.0663 36.1736 30.095 36.188C30.3394 36.3099 30.5693 36.3674 30.8065 36.3674C31.403 36.3674 31.7766 35.9942 31.8988 35.8722L34.3566 33.418C34.6009 33.1741 34.989 32.8798 35.4417 32.8798C35.8873 32.8798 36.2538 33.1597 36.4765 33.4037L36.4909 33.418L40.4506 37.372C41.1908 38.1039 41.1908 38.8574 40.4578 39.618ZM29.3764 19.0877C31.2592 19.4034 32.9696 20.2933 34.335 21.6567C35.7004 23.0201 36.5843 24.728 36.9077 26.6081C36.9868 27.0817 37.3964 27.4118 37.8635 27.4118C37.921 27.4118 37.9713 27.4046 38.0288 27.3974C38.5606 27.3113 38.9127 26.809 38.8265 26.278C38.4384 24.0032 37.3605 21.9294 35.7148 20.2861C34.0691 18.6428 31.9922 17.5664 29.7142 17.1789C29.1824 17.0928 28.6865 17.4444 28.5931 17.9683C28.4997 18.4921 28.8446 19.0016 29.3764 19.0877ZM44.9852 25.9981C44.3456 22.2523 42.5778 18.8437 39.8613 16.1312C37.1449 13.4187 33.7313 11.6534 29.9801 11.0148C29.4554 10.9215 28.9596 11.2803 28.8662 11.8041C28.7799 12.3351 29.1321 12.8303 29.6639 12.9236C33.0127 13.4905 36.0669 15.0763 38.4959 17.4946C40.9249 19.9201 42.5059 22.9699 43.0736 26.3139C43.1527 26.7875 43.5623 27.1176 44.0294 27.1176C44.0869 27.1176 44.1372 27.1104 44.1947 27.1032C44.7193 27.0243 45.0786 26.522 44.9852 25.9981Z" fill="white"/>
</svg>
