<svg width="34" height="34" viewBox="0 0 34 34" fill="none" xmlns="http://www.w3.org/2000/svg">
<path d="M26.8851 21.0618C26.188 20.337 25.3472 19.9495 24.4561 19.9495C23.5721 19.9495 22.7242 20.3298 21.9983 21.0546L19.7274 23.315C19.5406 23.2146 19.3537 23.1213 19.1741 23.028C18.9154 22.8988 18.671 22.7768 18.4626 22.6477C16.3355 21.2986 14.4023 19.5405 12.5482 17.2657C11.6499 16.1319 11.0463 15.1775 10.6079 14.2088C11.1972 13.6706 11.7434 13.1109 12.2752 12.5727C12.4764 12.3717 12.6776 12.1636 12.8788 11.9627C14.388 10.4558 14.388 8.5039 12.8788 6.99695L10.9169 5.03792C10.6942 4.81547 10.4642 4.58584 10.2486 4.35621C9.81742 3.9113 9.36468 3.45204 8.89756 3.02149C8.20048 2.3326 7.36686 1.96662 6.49013 1.96662C5.61339 1.96662 4.76539 2.3326 4.04676 3.02149L4.03238 3.03584L1.58902 5.49718C0.669159 6.4157 0.144553 7.53515 0.0295709 8.83399C-0.142902 10.9294 0.475126 12.8812 0.949427 14.1585C2.11362 17.2944 3.85272 20.2007 6.44701 23.315C9.59464 27.068 13.3819 30.0317 17.7081 32.1199C19.3609 32.9021 21.5671 33.8278 24.0321 33.9856C24.183 33.9928 24.3411 34 24.4848 34C26.1449 34 27.539 33.4044 28.6314 32.2204C28.6385 32.206 28.6529 32.1988 28.6601 32.1845C29.0338 31.7324 29.465 31.3234 29.9177 30.8856C30.2267 30.5914 30.5429 30.2829 30.8519 29.9599C31.5634 29.2208 31.9371 28.3597 31.9371 27.4771C31.9371 26.5873 31.5562 25.7333 30.8304 25.0157L26.8851 21.0618ZM29.4578 28.618C29.4506 28.618 29.4506 28.6252 29.4578 28.618C29.1775 28.9194 28.8901 29.1921 28.5811 29.4935C28.1139 29.9384 27.6396 30.4049 27.1941 30.9287C26.4683 31.7037 25.6131 32.0697 24.492 32.0697C24.3842 32.0697 24.2692 32.0697 24.1614 32.0625C22.0271 31.9262 20.0436 31.0937 18.5561 30.3833C14.4886 28.4171 10.9169 25.6257 7.94896 22.0879C5.49841 19.1386 3.85991 16.4118 2.77477 13.484C2.10643 11.6972 1.8621 10.3051 1.96989 8.99187C2.04176 8.15228 2.36514 7.45621 2.96161 6.86061L5.41217 4.41362C5.7643 4.08352 6.13799 3.90413 6.5045 3.90413C6.95724 3.90413 7.32375 4.17681 7.55371 4.40644L7.57527 4.42797C8.01364 4.837 8.43045 5.26038 8.86882 5.71246C9.09159 5.94209 9.32156 6.17172 9.55152 6.40853L11.5134 8.36756C12.2752 9.12821 12.2752 9.83145 11.5134 10.5921C11.305 10.8002 11.1038 11.0083 10.8954 11.2092C10.2917 11.8264 9.71681 12.4004 9.09159 12.9602C9.07722 12.9745 9.06285 12.9817 9.05566 12.996C8.43763 13.6132 8.55262 14.2159 8.68197 14.625L8.70353 14.6896C9.21376 15.9238 9.9324 17.0863 11.0247 18.4713L11.0319 18.4785C13.0154 20.9183 15.1066 22.8199 17.4134 24.2766C17.7081 24.4632 18.0099 24.6139 18.2973 24.7574C18.5561 24.8866 18.8004 25.0086 19.0088 25.1377C19.0375 25.1521 19.0663 25.1736 19.095 25.188C19.3394 25.3099 19.5693 25.3674 19.8065 25.3674C20.403 25.3674 20.7766 24.9942 20.8988 24.8722L23.3566 22.418C23.6009 22.1741 23.989 21.8798 24.4417 21.8798C24.8873 21.8798 25.2538 22.1597 25.4765 22.4037L25.4909 22.418L29.4506 26.372C30.1908 27.1039 30.1908 27.8574 29.4578 28.618ZM18.3764 8.0877C20.2592 8.40344 21.9696 9.29325 23.335 10.6567C24.7004 12.0201 25.5843 13.728 25.9077 15.6081C25.9868 16.0817 26.3964 16.4118 26.8635 16.4118C26.921 16.4118 26.9713 16.4046 27.0288 16.3974C27.5606 16.3113 27.9127 15.809 27.8265 15.278C27.4384 13.0032 26.3605 10.9294 24.7148 9.28608C23.0691 7.64279 20.9922 6.5664 18.7142 6.1789C18.1824 6.09279 17.6865 6.44441 17.5931 6.96825C17.4997 7.49209 17.8446 8.00159 18.3764 8.0877ZM33.9852 14.9981C33.3456 11.2523 31.5778 7.84372 28.8613 5.13121C26.1449 2.41871 22.7313 0.653427 18.9801 0.0147691C18.4554 -0.078518 17.9596 0.280279 17.8662 0.804122C17.7799 1.33514 18.1321 1.83028 18.6639 1.92357C22.0127 2.49047 25.0669 4.07635 27.4959 6.49464C29.9249 8.9201 31.5059 11.9699 32.0736 15.3139C32.1527 15.7875 32.5623 16.1176 33.0294 16.1176C33.0869 16.1176 33.1372 16.1104 33.1947 16.1032C33.7193 16.0243 34.0786 15.522 33.9852 14.9981Z" fill="white"/>
</svg>
