<svg xmlns="http://www.w3.org/2000/svg" width="20" height="20" viewBox="0 0 20 20">
  <g id="close" transform="translate(-5030 12593)">
    <circle id="Ellipse_1" data-name="Ellipse 1" cx="10" cy="10" r="10" transform="translate(5030 -12593)" fill="#f0f0f0"/>
    <g id="Group_54" data-name="Group 54" transform="translate(5030.992 -12591.994)">
      <path id="Path_3" data-name="Path 3" d="M4.109,13.617a.347.347,0,0,0,.491,0L8.869,9.349l4.27,4.269a.348.348,0,0,0,.491-.491L9.361,8.857l4.269-4.27a.348.348,0,0,0-.491-.491L8.869,8.366,4.6,4.1a.347.347,0,0,0-.49.49l4.269,4.27-4.269,4.27A.347.347,0,0,0,4.109,13.617Z" transform="translate(0 0)"/>
    </g>
  </g>
</svg>
