<svg width="56" height="43" viewBox="0 0 56 43" fill="none" xmlns="http://www.w3.org/2000/svg">
<path d="M16.2032 13.514C17.2299 13.0954 18.3281 12.8801 19.4369 12.8801C19.8205 12.8801 20.1319 12.5694 20.1319 12.1852C20.1319 11.8016 19.8205 11.4902 19.4369 11.4902C13.9587 11.5495 9.54883 16.0071 9.54883 21.4856C9.54883 26.9642 13.9587 31.4217 19.4368 31.4809C19.8205 31.4809 20.1318 31.1697 20.1318 30.786C20.1318 30.4019 19.8205 30.091 19.4368 30.091C15.3202 30.0906 11.7807 27.1746 10.9925 23.1344C10.2044 19.094 12.3887 15.0614 16.2033 13.514H16.2032Z" fill="white"/>
<path d="M0.565221 25.1734L3.06681 26.0204C3.49423 27.5203 4.12054 28.9561 4.92904 30.2897L3.83913 32.7221C3.78089 32.8519 3.76393 32.9966 3.79055 33.1364C3.81717 33.2762 3.88608 33.4045 3.98796 33.5039L7.90053 37.321C8.00349 37.4215 8.13509 37.4875 8.27717 37.5101C8.41925 37.5326 8.56483 37.5105 8.69382 37.4468L11.0891 36.2636C12.4408 37.0463 13.9018 37.6228 15.4238 37.9739L16.3523 40.4691C16.4017 40.6021 16.4906 40.7167 16.6071 40.7977C16.7235 40.8786 16.862 40.922 17.0038 40.922H17.015L19.4474 40.88C19.5386 40.8785 19.6287 40.859 19.7125 40.8227C19.7963 40.7864 19.872 40.7339 19.9355 40.6682C19.999 40.6026 20.0489 40.5251 20.0823 40.4401C20.1158 40.3552 20.1322 40.2645 20.1306 40.1732C20.1274 39.9888 20.0511 39.8133 19.9185 39.6852C19.7858 39.557 19.6078 39.4869 19.4234 39.4901L17.4825 39.5235L16.5944 37.1337C16.5533 37.0233 16.4849 36.925 16.3954 36.8483C16.3059 36.7717 16.1984 36.719 16.083 36.6953C14.4557 36.3616 12.8989 35.7474 11.4822 34.8801C11.382 34.8189 11.268 34.784 11.1508 34.7787C11.0335 34.7734 10.9168 34.7979 10.8116 34.8498L8.51915 35.9823L5.30594 32.8481L6.34836 30.5213C6.39533 30.4163 6.41554 30.3014 6.40717 30.1867C6.3988 30.0721 6.36212 29.9613 6.30041 29.8643C5.40499 28.457 4.73413 26.9188 4.31193 25.3051C4.28277 25.1937 4.2264 25.0914 4.1479 25.0072C4.0694 24.923 3.97122 24.8597 3.86218 24.8228L1.47422 24.0147L1.39812 19.5333L3.78759 18.6447C3.89811 18.6037 3.99638 18.5353 4.07314 18.4459C4.1499 18.3564 4.20262 18.2489 4.22633 18.1334C4.56004 16.5057 5.17426 14.9485 6.04154 13.5312C6.10279 13.4311 6.13765 13.3171 6.14288 13.1998C6.1481 13.0825 6.12352 12.9658 6.07142 12.8606L4.939 10.5678L8.07438 7.35488L10.4008 8.39731C10.5057 8.44436 10.6207 8.46466 10.7353 8.45637C10.85 8.44808 10.9608 8.41147 11.0578 8.34982C12.4653 7.45452 14.0034 6.78352 15.617 6.36087C15.7284 6.33189 15.8309 6.27565 15.9152 6.19722C15.9994 6.11879 16.0629 6.02063 16.0998 5.91159L16.9082 3.52362L19.4483 3.48112C19.5395 3.47959 19.6296 3.46011 19.7133 3.42378C19.7971 3.38745 19.8728 3.33499 19.9363 3.26938C19.9998 3.20377 20.0497 3.12631 20.0832 3.04141C20.1167 2.95651 20.1332 2.86584 20.1316 2.77458C20.1301 2.68332 20.1106 2.59325 20.0743 2.50952C20.038 2.42579 19.9855 2.35003 19.9199 2.28657C19.8543 2.22311 19.7768 2.1732 19.6919 2.13968C19.607 2.10616 19.5164 2.08969 19.4251 2.09122L16.3951 2.14276C16.2519 2.14523 16.1129 2.1919 15.9972 2.27639C15.8815 2.36087 15.7947 2.47905 15.7487 2.61474L14.9012 5.11668C13.4014 5.544 11.9656 6.17031 10.632 6.97891L8.19971 5.88854C8.06989 5.83042 7.92536 5.81353 7.78564 5.84014C7.64591 5.86676 7.51772 5.9356 7.41835 6.03737L3.60111 9.94925C3.50054 10.0522 3.4344 10.1838 3.41178 10.3259C3.38917 10.4681 3.41121 10.6137 3.47486 10.7428L4.65848 13.138C3.8758 14.4903 3.29922 15.9518 2.94774 17.4743L0.452986 18.4017C0.318058 18.4517 0.202005 18.5424 0.120875 18.6613C0.0397442 18.7801 -0.00245555 18.9213 0.000110451 19.0651L0.0927704 24.5274C0.0952463 24.6707 0.14198 24.8097 0.226564 24.9254C0.311147 25.041 0.42944 25.1276 0.565221 25.1734ZM20.8337 20.7906V22.1805H48.5624C48.9208 24.0378 50.632 25.3186 52.5146 25.1386C54.3975 24.9585 55.8354 23.3772 55.8354 21.4855C55.8354 19.5939 54.3975 18.0126 52.5146 17.8325C50.632 17.6525 48.9208 18.9333 48.5624 20.7907L20.8337 20.7906ZM50.5518 19.8758C51.4409 18.9867 52.8823 18.9867 53.7714 19.8753C54.66 20.7644 54.66 22.2058 53.7714 23.0949C52.8823 23.984 51.4409 23.984 50.5518 23.0949C49.6641 22.2054 49.6641 20.7653 50.5518 19.8758ZM42.6595 7.95034C40.9027 7.95034 39.3928 9.19685 39.059 10.9215H33.2034C31.1494 10.9238 29.4843 12.5888 29.4821 14.6429C29.4807 15.93 28.4373 16.9729 27.1506 16.9747H20.8337V18.3646H27.1508C29.2048 18.3623 30.8698 16.6974 30.872 14.6428C30.8734 13.356 31.9163 12.3128 33.2034 12.3114H39.059C39.4254 14.2108 41.2048 15.4989 43.1236 15.2537C45.0428 15.0084 46.4409 13.3149 46.3183 11.384C46.1957 9.4534 44.5942 7.95034 42.6595 7.95034ZM44.2692 13.2262C43.3806 14.114 41.94 14.1134 41.052 13.2249C40.1638 12.3363 40.1638 10.8962 41.052 10.0076C41.9401 9.11901 43.3806 9.11855 44.2692 10.0062C45.1574 10.8962 45.1574 12.3367 44.2692 13.2262ZM42.6595 35.0208C44.5937 35.0204 46.1945 33.5174 46.317 31.5872C46.4396 29.6576 45.0415 27.9641 43.1233 27.7189C41.205 27.4737 39.4259 28.7608 39.059 30.6597H33.2034C31.9163 30.6584 30.8734 29.6149 30.872 28.3282C30.8697 26.2737 29.2048 24.6092 27.1506 24.6066H20.8337V25.9965H27.1508C28.4375 25.9982 29.4807 27.0412 29.4821 28.3282C29.4844 30.3824 31.1494 32.0474 33.2034 32.0497H39.059C39.3928 33.7748 40.9027 35.0208 42.6595 35.0208ZM41.0496 29.7449C41.9387 28.8558 43.3797 28.8558 44.2688 29.7449C45.1578 30.634 45.1578 32.0754 44.2688 32.9645C43.3797 33.8536 41.9387 33.8536 41.0496 32.9645C40.8375 32.7535 40.6691 32.5026 40.5542 32.2264C40.4393 31.9501 40.3801 31.6538 40.3801 31.3546C40.3802 31.0554 40.4394 30.7592 40.5543 30.483C40.6692 30.2067 40.8376 29.9559 41.0496 29.7449ZM33.7151 36.7174C33.1121 37.3175 32.7382 38.1097 32.6582 38.9566H31.8706C31.2346 38.9547 30.6141 38.7591 30.0921 38.3957C29.5701 38.0322 29.1712 37.5183 28.9487 36.9225L26.98 31.6076C26.658 30.746 26.0811 30.003 25.3261 29.4777C24.5712 28.9523 23.674 28.6694 22.7543 28.6668H20.8337V30.0567H22.7543C23.3903 30.0585 24.0108 30.254 24.5328 30.6174C25.0549 30.9807 25.4539 31.4945 25.6765 32.0903L27.6456 37.4052C27.9674 38.2668 28.5443 39.0099 29.2992 39.5354C30.0541 40.0609 30.9512 40.3438 31.871 40.3465H32.7904C33.2564 41.931 34.7241 43.0081 36.3755 42.9779C38.0268 42.948 39.4544 41.8178 39.8624 40.2171C40.2706 38.6169 39.559 36.941 38.1233 36.1238C36.6881 35.3067 34.8837 35.5497 33.7156 36.7174H33.7151ZM38.5843 39.31C38.5838 40.3949 37.817 41.3288 36.7528 41.54C35.6886 41.7513 34.6232 41.1817 34.2079 40.1796C34.0066 39.6933 33.9801 39.1524 34.1329 38.6489C34.2857 38.1453 34.6083 37.7103 35.0457 37.4178C35.9474 36.8147 37.15 36.9329 37.9174 37.6998C38.1295 37.9107 38.2977 38.1616 38.4122 38.438C38.5267 38.7144 38.5852 39.0108 38.5843 39.31ZM26.9802 11.3636L28.9487 6.04872C29.1711 5.4528 29.57 4.93884 30.092 4.57539C30.614 4.21194 31.2344 4.01628 31.8705 4.01449H32.6581C32.8419 5.88993 34.4201 7.31874 36.3044 7.3155C38.1884 7.31284 39.762 5.87858 39.9393 4.00279C40.1173 2.12689 38.8409 0.423567 36.9904 0.0665947C35.1404 -0.29003 33.3219 0.817604 32.7899 2.62459H31.8705C29.9874 2.63003 28.3039 3.80137 27.6452 5.56596L25.6762 10.8808C25.4535 11.4766 25.0546 11.9904 24.5326 12.3537C24.0106 12.717 23.3903 12.9126 22.7543 12.9145H20.8337V14.3044H22.7543C23.6741 14.3018 24.5712 14.0189 25.3262 13.4936C26.0812 12.9682 26.6581 12.2252 26.9802 11.3636ZM34.6983 2.05137C35.4662 1.2831 36.6696 1.16508 37.5722 1.76818C38.4753 2.37163 38.8264 3.52872 38.4106 4.53176C38.209 5.01819 37.845 5.41971 37.3807 5.66791C36.9163 5.91611 36.3803 5.99566 35.8638 5.893C35.3474 5.79034 34.8825 5.51182 34.5484 5.10488C34.2143 4.69795 34.0315 4.18776 34.0313 3.66122C34.0309 3.36224 34.0896 3.06613 34.2041 2.78993C34.3185 2.51373 34.4865 2.26288 34.6983 2.05183V2.05137Z" fill="white"/>
</svg>
