<svg width="57" height="57" viewBox="0 0 57 57" fill="none" xmlns="http://www.w3.org/2000/svg">
<circle cx="28.5" cy="28.5" r="28.5" fill="#284D4F"/>
<path d="M44.5723 15H12.4277C10.5416 15 9 16.5348 9 18.4277V38.9941C9 40.8878 10.5426 42.4219 12.4277 42.4219H44.5723C46.4584 42.4219 48 40.8871 48 38.9941V18.4277C48 16.5343 46.4577 15 44.5723 15ZM44.0459 17.2852L29.3854 31.9935C28.9387 32.4415 28.0615 32.4418 27.6146 31.9935L12.9541 17.2852H44.0459ZM11.2852 38.5741V18.8478L21.1163 28.7109L11.2852 38.5741ZM12.9541 40.1367L22.7295 30.3294L25.9962 33.6067C27.3348 34.9497 29.6657 34.9492 31.0039 33.6067L34.2706 30.3295L44.0459 40.1367H12.9541ZM45.7148 38.5741L35.8837 28.7109L45.7148 18.8478V38.5741Z" fill="white"/>
</svg>
