<svg width="39" height="28" viewBox="0 0 39 28" fill="none" xmlns="http://www.w3.org/2000/svg">
<path d="M35.5723 0H3.42773C1.54157 0 0 1.53479 0 3.42773V23.9941C0 25.8878 1.54256 27.4219 3.42773 27.4219H35.5723C37.4584 27.4219 39 25.8871 39 23.9941V3.42773C39 1.53433 37.4577 0 35.5723 0ZM35.0459 2.28516L20.3854 16.9935C19.9387 17.4415 19.0615 17.4418 18.6146 16.9935L3.95408 2.28516H35.0459ZM2.28516 23.5741V3.84782L12.1163 13.7109L2.28516 23.5741ZM3.95408 25.1367L13.7295 15.3294L16.9962 18.6067C18.3348 19.9497 20.6657 19.9492 22.0039 18.6067L25.2706 15.3295L35.0459 25.1367H3.95408ZM36.7148 23.5741L26.8837 13.7109L36.7148 3.84782V23.5741Z" fill="white"/>
</svg>
