<svg width="18" height="20" viewBox="0 0 18 20" fill="none" xmlns="http://www.w3.org/2000/svg">
<g opacity="0.7">
<path d="M15 20H3C2.20435 20 1.44129 19.6839 0.87868 19.1213C0.31607 18.5587 0 17.7957 0 17L0 3.00001C0 2.20436 0.31607 1.4413 0.87868 0.878692C1.44129 0.316083 2.20435 1.25373e-05 3 1.25373e-05H12.257C12.651 -0.00113038 13.0414 0.0758802 13.4054 0.226588C13.7695 0.377296 14.1001 0.598708 14.378 0.878013L17.121 3.62101C17.4006 3.89898 17.6223 4.22967 17.7732 4.59392C17.924 4.95818 18.0011 5.34875 18 5.74301V17C18 17.7957 17.6839 18.5587 17.1213 19.1213C16.5587 19.6839 15.7956 20 15 20ZM5 12C4.73478 12 4.48043 12.1054 4.29289 12.2929C4.10536 12.4804 4 12.7348 4 13C4 13.2652 4.10536 13.5196 4.29289 13.7071C4.48043 13.8947 4.73478 14 5 14H9C9.26522 14 9.51957 13.8947 9.70711 13.7071C9.89464 13.5196 10 13.2652 10 13C10 12.7348 9.89464 12.4804 9.70711 12.2929C9.51957 12.1054 9.26522 12 9 12H5ZM5 8.00001C4.73478 8.00001 4.48043 8.10537 4.29289 8.29291C4.10536 8.48044 4 8.7348 4 9.00001C4 9.26523 4.10536 9.51958 4.29289 9.70712C4.48043 9.89466 4.73478 10 5 10H13C13.2652 10 13.5196 9.89466 13.7071 9.70712C13.8946 9.51958 14 9.26523 14 9.00001C14 8.7348 13.8946 8.48044 13.7071 8.29291C13.5196 8.10537 13.2652 8.00001 13 8.00001H5ZM12.5 1.70001C12.3674 1.70001 12.2402 1.75269 12.1464 1.84646C12.0527 1.94023 12 2.0674 12 2.20001V4.00001C12 4.53045 12.2107 5.03915 12.5858 5.41423C12.9609 5.7893 13.4696 6.00001 14 6.00001H15.793C15.8919 5.99999 15.9886 5.97062 16.0709 5.91562C16.1531 5.86061 16.2172 5.78245 16.255 5.69101C16.2928 5.59958 16.3026 5.49899 16.2832 5.40198C16.2638 5.30496 16.216 5.21588 16.146 5.14601L12.854 1.85301C12.8082 1.80664 12.7538 1.76978 12.6937 1.74455C12.6336 1.71932 12.5691 1.70622 12.504 1.70601L12.5 1.70001Z" fill="black"/>
</g>
</svg>
