<svg width="57" height="57" viewBox="0 0 57 57" fill="none" xmlns="http://www.w3.org/2000/svg">
<path d="M57 28.5C57 44.2401 44.2401 57 28.5 57C12.7599 57 0 44.2401 0 28.5C0 12.7599 12.7599 0 28.5 0C44.2401 0 57 12.7599 57 28.5Z" fill="#284D4F"/>
<path d="M28 11C20.8316 11 15 16.8316 15 24C15 26.3599 16.0584 28.8979 16.1027 29.005C16.4445 29.8164 17.119 31.0766 17.6054 31.8153L26.5188 45.3208C26.8835 45.8744 27.4234 46.1918 28 46.1918C28.5766 46.1918 29.1165 45.8744 29.4812 45.3215L38.3954 31.8153C38.8825 31.0766 39.5562 29.8164 39.8981 29.005C39.9424 28.8987 41 26.3606 41 24C41 16.8316 35.1684 11 28 11ZM38.4879 28.4116C38.1828 29.1388 37.555 30.3111 37.1184 30.9734L28.2042 44.4796C28.0283 44.7465 27.9725 44.7465 27.7966 44.4796L18.8824 30.9734C18.4458 30.3111 17.8179 29.1381 17.5128 28.4108C17.4998 28.3795 16.5294 26.0433 16.5294 24C16.5294 17.6751 21.6751 12.5294 28 12.5294C34.3249 12.5294 39.4706 17.6751 39.4706 24C39.4706 26.0464 38.4979 28.3886 38.4879 28.4116Z" fill="white"/>
<path d="M27.9995 17.1182C24.2043 17.1182 21.1172 20.206 21.1172 24.0005C21.1172 27.795 24.2043 30.8829 27.9995 30.8829C31.7948 30.8829 34.8819 27.795 34.8819 24.0005C34.8819 20.206 31.7948 17.1182 27.9995 17.1182ZM27.9995 29.3535C25.0485 29.3535 22.6466 26.9523 22.6466 24.0005C22.6466 21.0488 25.0485 18.6476 27.9995 18.6476C30.9505 18.6476 33.3525 21.0488 33.3525 24.0005C33.3525 26.9523 30.9505 29.3535 27.9995 29.3535Z" fill="white"/>
</svg>
