<svg width="28" height="27" viewBox="0 0 28 27" fill="none" xmlns="http://www.w3.org/2000/svg">
<path fill-rule="evenodd" clip-rule="evenodd" d="M8.21515 5.68314C8.75024 5.3256 9.37934 5.13477 10.0229 5.13477C10.4361 5.13477 10.771 5.46971 10.771 5.88289C10.771 6.29607 10.4361 6.63102 10.0229 6.63102C9.67527 6.63102 9.33546 6.7341 9.04642 6.92722C8.75739 7.12035 8.53211 7.39485 8.39908 7.71601C8.26606 8.03717 8.23125 8.39056 8.29907 8.7315C8.36688 9.07244 8.53428 9.38561 8.78008 9.63142C9.02589 9.87722 9.33906 10.0446 9.68 10.1124C10.0209 10.1803 10.3743 10.1454 10.6955 10.0124C11.0167 9.87939 11.2911 9.65411 11.4843 9.36508C11.6774 9.07604 11.7805 8.73623 11.7805 8.38861C11.7805 7.97543 12.1154 7.64049 12.5286 7.64049C12.9418 7.64049 13.2767 7.97543 13.2767 8.38861C13.2767 9.03216 13.0859 9.66126 12.7284 10.1964C12.3708 10.7314 11.8626 11.1485 11.2681 11.3948C10.6735 11.641 10.0193 11.7055 9.3881 11.5799C8.75691 11.4544 8.17713 11.1445 7.72207 10.6894C7.26702 10.2344 6.95712 9.65459 6.83157 9.0234C6.70602 8.39222 6.77045 7.73798 7.01673 7.14342C7.263 6.54886 7.68006 6.04067 8.21515 5.68314Z" fill="#8D98AA"/>
<path fill-rule="evenodd" clip-rule="evenodd" d="M26.2778 9.47363C26.685 9.47363 27.0151 9.81063 27.0151 10.2263V16.529C27.0151 19.7532 26.3915 22.206 24.8053 23.8342C23.2182 25.4635 20.8261 26.1044 17.6831 26.1044H10.3164C7.17437 26.1044 4.7824 25.4638 3.19499 23.8347C1.60855 22.2066 0.984375 19.7538 0.984375 16.529V13.9949C0.984375 13.5792 1.3145 13.2422 1.72173 13.2422C2.12897 13.2422 2.45909 13.5792 2.45909 13.9949V16.529C2.45909 19.6068 3.06385 21.5654 4.24055 22.773C5.41627 23.9796 7.32163 24.599 10.3164 24.599H17.6831C20.6789 24.599 22.5842 23.9794 23.7596 22.7727C24.9361 21.565 25.5404 19.6064 25.5404 16.529V10.2263C25.5404 9.81063 25.8706 9.47363 26.2778 9.47363Z" fill="#8D98AA"/>
<path fill-rule="evenodd" clip-rule="evenodd" d="M3.22568 2.2969C4.83419 0.701042 7.25801 0.0732422 10.4441 0.0732422H15.4254C15.8361 0.0732422 16.169 0.403549 16.169 0.811004C16.169 1.21846 15.8361 1.54877 15.4254 1.54877H10.4441C7.40475 1.54877 5.47048 2.15647 4.27731 3.34025C3.08413 4.52404 2.4716 6.44308 2.4716 9.45856C2.4716 9.86601 2.13868 10.1963 1.72799 10.1963C1.3173 10.1963 0.984375 9.86601 0.984375 9.45856C0.984375 6.29749 1.61716 3.89276 3.22568 2.2969Z" fill="#8D98AA"/>
<path fill-rule="evenodd" clip-rule="evenodd" d="M17.6152 4.41155C17.6152 4.01221 17.9618 3.68848 18.3892 3.68848H25.5182C25.9456 3.68848 26.2922 4.01221 26.2922 4.41155C26.2922 4.8109 25.9456 5.13463 25.5182 5.13463H18.3892C17.9618 5.13463 17.6152 4.8109 17.6152 4.41155Z" fill="#8D98AA"/>
<path fill-rule="evenodd" clip-rule="evenodd" d="M21.9535 0.0732422C22.3529 0.0732422 22.6766 0.419768 22.6766 0.84723V7.97618C22.6766 8.40364 22.3529 8.75016 21.9535 8.75016C21.5542 8.75016 21.2305 8.40364 21.2305 7.97618V0.84723C21.2305 0.419768 21.5542 0.0732422 21.9535 0.0732422Z" fill="#8D98AA"/>
<path fill-rule="evenodd" clip-rule="evenodd" d="M21.2665 14.2994L16.149 18.7293L16.1354 18.7408C15.5133 19.2538 14.7327 19.5342 13.927 19.5342C13.1214 19.5342 12.3407 19.2538 11.7186 18.7408C11.7119 18.7353 11.7053 18.7296 11.6988 18.7239L11.3037 18.3741C10.9729 18.1072 10.5666 17.9512 10.1423 17.9286C9.71531 17.9057 9.29216 18.019 8.93349 18.2521L2.86242 22.3611C2.52355 22.5905 2.0633 22.5011 1.83443 22.1615C1.60556 21.8219 1.69473 21.3607 2.03361 21.1313L8.11987 17.012C8.74269 16.6049 9.47861 16.407 10.2211 16.4467C10.9637 16.4864 11.6743 16.7617 12.2504 17.2328C12.2579 17.239 12.2653 17.2452 12.2725 17.2516L12.6687 17.6024C13.0243 17.892 13.4686 18.0502 13.927 18.0502C14.3867 18.0502 14.8322 17.8911 15.1883 17.6L20.3057 13.1701L20.3193 13.1586C20.9415 12.6457 21.7221 12.3652 22.5278 12.3652C23.3334 12.3652 24.114 12.6457 24.7362 13.1586L24.7498 13.1701L26.7588 14.9094C27.0683 15.1773 27.1024 15.6458 26.8351 15.9559C26.5678 16.2661 26.1002 16.3003 25.7907 16.0324L23.789 14.2994C23.4329 14.0083 22.9874 13.8492 22.5278 13.8492C22.0681 13.8492 21.6225 14.0083 21.2665 14.2994Z" fill="#8D98AA"/>
</svg>
