<svg width="33" height="32" viewBox="0 0 33 32" fill="none" xmlns="http://www.w3.org/2000/svg">
<path fill-rule="evenodd" clip-rule="evenodd" d="M5.18017 8.63924H2.54311C1.95979 8.63924 1.48828 9.10551 1.48828 9.68234C1.48828 10.2592 1.95979 10.7254 2.54311 10.7254H3.59793V11.7685C3.59793 12.3454 4.06944 12.8116 4.65275 12.8116C5.23502 12.8116 5.70758 12.3454 5.70758 11.7685V10.6722C6.90902 10.4302 7.81723 9.37776 7.81723 8.11769C7.81723 6.67926 6.63372 5.50994 5.18017 5.50994H4.12534C3.83421 5.50994 3.59793 5.27524 3.59793 4.98839C3.59793 4.70154 3.83421 4.46684 4.12534 4.46684H6.7624C7.34467 4.46684 7.81723 4.00057 7.81723 3.42374C7.81723 2.8469 7.34467 2.38064 6.7624 2.38064H5.70758V1.33753C5.70758 0.7607 5.23502 0.294434 4.65275 0.294434C4.06944 0.294434 3.59793 0.7607 3.59793 1.33753V2.43383C2.39543 2.67583 1.48828 3.72832 1.48828 4.98839C1.48828 6.42683 2.67074 7.59614 4.12534 7.59614H5.18017C5.47024 7.59614 5.70758 7.83084 5.70758 8.11769C5.70758 8.40455 5.47024 8.63924 5.18017 8.63924Z" fill="#1A55AF"/>
<path fill-rule="evenodd" clip-rule="evenodd" d="M22.5842 24.2856H6.76183C6.18062 24.2856 5.707 23.8183 5.707 23.2425V18.4589L7.07089 19.8076C7.48333 20.2155 8.14998 20.2155 8.56241 19.8076C8.97485 19.3997 8.97485 18.7405 8.56241 18.3327L5.39794 15.2034C4.9855 14.7955 4.31885 14.7955 3.90642 15.2034L0.741944 18.3327C0.329508 18.7405 0.329508 19.3997 0.741944 19.8076C1.15438 20.2155 1.82103 20.2155 2.23347 19.8076L3.59735 18.4589V23.2425C3.59735 24.9678 5.01715 26.3718 6.76183 26.3718H22.5842C23.1665 26.3718 23.639 25.9056 23.639 25.3287C23.639 24.7519 23.1665 24.2856 22.5842 24.2856Z" fill="#1A55AF"/>
<path fill-rule="evenodd" clip-rule="evenodd" d="M27.3304 23.2427H29.9675C30.5508 23.2427 31.0223 22.7765 31.0223 22.1996C31.0223 21.6228 30.5508 21.1565 29.9675 21.1565H28.9127V20.1134C28.9127 19.5366 28.4412 19.0703 27.8578 19.0703C27.2756 19.0703 26.803 19.5366 26.803 20.1134V21.2097C25.6016 21.4517 24.6934 22.5042 24.6934 23.7643C24.6934 25.2027 25.8769 26.372 27.3304 26.372H28.3853C28.6764 26.372 28.9127 26.6067 28.9127 26.8936C28.9127 27.1804 28.6764 27.4151 28.3853 27.4151H25.7482C25.1659 27.4151 24.6934 27.8814 24.6934 28.4582C24.6934 29.0351 25.1659 29.5013 25.7482 29.5013H26.803V30.5444C26.803 31.1213 27.2756 31.5875 27.8578 31.5875C28.4412 31.5875 28.9127 31.1213 28.9127 30.5444V29.4481C30.1152 29.2061 31.0223 28.1536 31.0223 26.8936C31.0223 25.4551 29.8399 24.2858 28.3853 24.2858H27.3304C27.0403 24.2858 26.803 24.0511 26.803 23.7643C26.803 23.4774 27.0403 23.2427 27.3304 23.2427Z" fill="#1A55AF"/>
<path fill-rule="evenodd" clip-rule="evenodd" d="M31.7682 12.074C31.3557 11.6661 30.6891 11.6661 30.2767 12.074L28.9128 13.4227V8.63907C28.9128 6.91378 27.493 5.50977 25.7483 5.50977H9.92592C9.34366 5.50977 8.87109 5.97603 8.87109 6.55287C8.87109 7.1297 9.34366 7.59597 9.92592 7.59597H25.7483C26.3295 7.59597 26.8031 8.06328 26.8031 8.63907V13.4227L25.4392 12.074C25.0268 11.6661 24.3601 11.6661 23.9477 12.074C23.5353 12.4819 23.5353 13.1411 23.9477 13.5489L27.1122 16.6783C27.5246 17.0861 28.1913 17.0861 28.6037 16.6783L31.7682 13.5489C32.1806 13.1411 32.1806 12.4819 31.7682 12.074Z" fill="#1A55AF"/>
</svg>
