<svg width="21" height="21" viewBox="0 0 21 21" fill="none" xmlns="http://www.w3.org/2000/svg">
<path d="M20.4361 9.13398C20.4354 9.13352 20.4349 9.13287 20.4344 9.13238L11.8672 0.566426C11.502 0.201059 11.0165 0 10.5001 0C9.98369 0 9.49818 0.201059 9.13286 0.566385L0.570105 9.12803C0.567233 9.1309 0.564198 9.13393 0.56149 9.13685C-0.188433 9.89096 -0.18712 11.1145 0.565182 11.8668C0.908846 12.2106 1.36261 12.4096 1.84799 12.4306C1.86785 12.4325 1.88774 12.4334 1.90776 12.4334H2.24904V18.7374C2.24904 19.985 3.26428 21 4.51202 21H7.86379C8.20364 21 8.47908 20.7244 8.47908 20.3847V15.4424C8.47908 14.8731 8.94232 14.4101 9.51163 14.4101H11.4886C12.0579 14.4101 12.521 14.8732 12.521 15.4424V20.3848C12.521 20.7244 12.7964 21 13.1363 21H16.488C17.7359 21 18.751 19.985 18.751 18.7374V12.4335H19.0676C19.5839 12.4335 20.0694 12.2324 20.4349 11.8669C21.188 11.1136 21.1883 9.88776 20.436 9.13393L20.4361 9.13398ZM19.5647 10.997C19.4996 11.0625 19.4221 11.1144 19.3368 11.1498C19.2515 11.1852 19.16 11.2033 19.0676 11.203H18.1357C17.7958 11.203 17.5204 11.4784 17.5204 11.8183V18.7374C17.5204 19.3065 17.0573 19.7695 16.488 19.7695H13.7516V15.4424C13.7516 14.1948 12.7364 13.1796 11.4885 13.1796H9.51168C8.26377 13.1796 7.24853 14.1948 7.24853 15.4424V19.7695H4.5121C3.94291 19.7695 3.47968 19.3065 3.47968 18.7374V11.8182C3.47968 11.4784 3.20423 11.203 2.86438 11.203H1.94845C1.93885 11.2023 1.92924 11.2019 1.91961 11.2017C1.7363 11.1985 1.56438 11.1258 1.43558 10.9968C1.16157 10.7228 1.16157 10.277 1.43558 10.0028C1.4357 10.0028 1.4357 10.0026 1.43587 10.0025L1.43636 10.002L10.0032 1.43637C10.0683 1.37087 10.1457 1.31894 10.231 1.28359C10.3163 1.24825 10.4078 1.23019 10.5001 1.23047C10.6878 1.23047 10.8642 1.30352 10.997 1.43637L19.5619 10.0003L19.5659 10.0041C19.8385 10.2786 19.838 10.7235 19.5647 10.997Z" fill="white"/>
</svg>
