<svg width="57" height="57" viewBox="0 0 57 57" fill="none" xmlns="http://www.w3.org/2000/svg">
<path d="M57 28.5C57 44.2401 44.2401 57 28.5 57C12.7599 57 0 44.2401 0 28.5C0 12.7599 12.7599 0 28.5 0C44.2401 0 57 12.7599 57 28.5Z" fill="#284D4F"/>
<path d="M35.3379 12H20.6621C15.8857 12 12 15.8857 12 20.6621V35.3381C12 40.1143 15.8857 44 20.6621 44H35.3381C40.1143 44 44 40.1143 44 35.3381V20.6621C44 15.8857 40.1143 12 35.3379 12ZM42.124 35.3381C42.124 39.0798 39.0798 42.124 35.3379 42.124H20.6621C16.9202 42.124 13.876 39.0798 13.876 35.3381V20.6621C13.876 16.9202 16.9202 13.876 20.6621 13.876H35.3381C39.0798 13.876 42.124 16.9202 42.124 20.6621V35.3381Z" fill="url(#paint0_linear_264_2553)"/>
<path d="M27.9998 19.2503C23.1751 19.2503 19.25 23.1753 19.25 28.0001C19.25 32.8248 23.175 36.7498 27.9998 36.7498C32.8245 36.7498 36.7495 32.8248 36.7495 28.0001C36.7495 23.1753 32.8245 19.2503 27.9998 19.2503ZM27.9998 34.8738C24.2098 34.8738 21.126 31.7904 21.126 28.0001C21.126 24.2101 24.2098 21.1263 27.9998 21.1263C31.7901 21.1263 34.8735 24.2101 34.8735 28.0001C34.8735 31.7904 31.7901 34.8738 27.9998 34.8738ZM36.9588 16.1429C35.533 16.1429 34.3733 17.3028 34.3733 18.7283C34.3733 20.1541 35.533 21.314 36.9588 21.314C38.3846 21.314 39.5444 20.1541 39.5444 18.7284C39.5444 17.3026 38.3845 16.1429 36.9588 16.1429ZM36.9588 19.4378C36.5677 19.4378 36.2493 19.1194 36.2493 18.7283C36.2493 18.337 36.5677 18.0189 36.9588 18.0189C37.3501 18.0189 37.6685 18.337 37.6685 18.7283C37.6685 19.1194 37.3501 19.4378 36.9588 19.4378Z" fill="url(#paint1_linear_264_2553)"/>
<defs>
<linearGradient id="paint0_linear_264_2553" x1="20.6496" y1="20.0579" x2="39.3087" y2="20.5608" gradientUnits="userSpaceOnUse">
<stop stop-color="#FC8342"/>
<stop offset="1" stop-color="#E54437"/>
</linearGradient>
<linearGradient id="paint1_linear_264_2553" x1="20.6496" y1="20.0579" x2="39.3087" y2="20.5608" gradientUnits="userSpaceOnUse">
<stop stop-color="#FC8342"/>
<stop offset="1" stop-color="#E54437"/>
</linearGradient>
</defs>
</svg>
