<svg width="26" height="36" viewBox="0 0 26 36" fill="none" xmlns="http://www.w3.org/2000/svg">
<path d="M13 0C5.83165 0 0 5.83165 0 13C0 15.3599 1.05835 17.8979 1.10271 18.005C1.44453 18.8164 2.119 20.0766 2.60535 20.8153L11.5188 34.3208C11.8835 34.8744 12.4234 35.1918 13 35.1918C13.5766 35.1918 14.1165 34.8744 14.4812 34.3215L23.3954 20.8153C23.8825 20.0766 24.5562 18.8164 24.8981 18.005C24.9424 17.8987 26 15.3606 26 13C26 5.83165 20.1684 0 13 0ZM23.4879 17.4116C23.1828 18.1388 22.555 19.3111 22.1184 19.9734L13.2042 33.4796C13.0283 33.7465 12.9725 33.7465 12.7966 33.4796L3.88241 19.9734C3.44576 19.3111 2.81794 18.1381 2.51282 17.4108C2.49982 17.3795 1.52941 15.0433 1.52941 13C1.52941 6.67512 6.67512 1.52941 13 1.52941C19.3249 1.52941 24.4706 6.67512 24.4706 13C24.4706 15.0464 23.4979 17.3886 23.4879 17.4116Z" fill="white"/>
<path d="M12.9995 6.11816C9.20431 6.11816 6.11719 9.20605 6.11719 13.0005C6.11719 16.795 9.20431 19.8829 12.9995 19.8829C16.7948 19.8829 19.8819 16.795 19.8819 13.0005C19.8819 9.20605 16.7948 6.11816 12.9995 6.11816ZM12.9995 18.3535C10.0485 18.3535 7.6466 15.9523 7.6466 13.0005C7.6466 10.0488 10.0485 7.64758 12.9995 7.64758C15.9505 7.64758 18.3525 10.0488 18.3525 13.0005C18.3525 15.9523 15.9505 18.3535 12.9995 18.3535Z" fill="white"/>
</svg>
