<svg width="34" height="32" viewBox="0 0 34 32" fill="none" xmlns="http://www.w3.org/2000/svg">
<path opacity="0.8" d="M18.4561 24.1887H26.3731L24.1481 22.1127C23.853 21.843 23.617 21.5151 23.4547 21.1498C23.2924 20.7844 23.2074 20.3895 23.2051 19.9897V15.3217C23.1659 13.4382 22.5324 11.6153 21.395 10.1135C20.2576 8.61164 18.6745 7.50781 16.8721 6.95974V6.45974C16.8442 5.64741 16.4949 4.87938 15.9011 4.32437C15.3073 3.76936 14.5174 3.47276 13.7051 3.49974C12.8934 3.47275 12.1041 3.7688 11.5104 4.32295C10.9167 4.8771 10.567 5.64412 10.5381 6.45574V6.95574C8.73498 7.50403 7.15147 8.60846 6.014 10.1111C4.87653 11.6137 4.24336 13.4375 4.20506 15.3217V19.9897C4.20282 20.3894 4.11799 20.7843 3.95588 21.1497C3.79378 21.515 3.5579 21.8429 3.26306 22.1127L1.03906 24.1887H8.95506M18.4561 24.1887L18.4551 25.6667C18.4118 26.8841 17.8874 28.0347 16.9969 28.8659C16.1064 29.6971 14.9226 30.1412 13.7051 30.1007C12.4876 30.1412 11.3037 29.6971 10.4132 28.8659C9.52276 28.0347 8.99835 26.8841 8.95506 25.6667V24.1887M18.4561 24.1887H8.95506" stroke="white" stroke-width="2" stroke-linecap="round" stroke-linejoin="round"/>
<path d="M24.6201 18.108C29.5448 18.108 33.5371 14.0544 33.5371 9.054C33.5371 4.05361 29.5448 0 24.6201 0C19.6954 0 15.7031 4.05361 15.7031 9.054C15.7031 14.0544 19.6954 18.108 24.6201 18.108Z" fill="#F2889B"/>
<path d="M25.3672 13.1193C24.7251 13.1193 24.1783 12.9446 23.7266 12.5952C23.2749 12.2429 22.9297 11.733 22.6911 11.0653C22.4524 10.3949 22.3331 9.58523 22.3331 8.63636C22.3331 7.69318 22.4524 6.88778 22.6911 6.22017C22.9325 5.54972 23.2791 5.03835 23.7308 4.68608C24.1854 4.33097 24.7308 4.15341 25.3672 4.15341C26.0036 4.15341 26.5476 4.33097 26.9993 4.68608C27.4538 5.03835 27.8004 5.54972 28.0391 6.22017C28.2805 6.88778 28.4013 7.69318 28.4013 8.63636C28.4013 9.58523 28.282 10.3949 28.0433 11.0653C27.8047 11.733 27.4595 12.2429 27.0078 12.5952C26.5561 12.9446 26.0092 13.1193 25.3672 13.1193ZM25.3672 12.1818C26.0036 12.1818 26.4979 11.875 26.8501 11.2614C27.2024 10.6477 27.3786 9.77273 27.3786 8.63636C27.3786 7.88068 27.2976 7.23722 27.1357 6.70597C26.9766 6.17472 26.7464 5.76989 26.4453 5.49148C26.147 5.21307 25.7876 5.07386 25.3672 5.07386C24.7365 5.07386 24.2436 5.38494 23.8885 6.0071C23.5334 6.62642 23.3558 7.50284 23.3558 8.63636C23.3558 9.39205 23.4354 10.0341 23.5945 10.5625C23.7536 11.0909 23.9822 11.4929 24.2805 11.7685C24.5817 12.044 24.9439 12.1818 25.3672 12.1818Z" fill="white"/>
</svg>
