<svg width="31" height="31" viewBox="0 0 31 31" fill="none" xmlns="http://www.w3.org/2000/svg">
<g opacity="0.8">
<path d="M12.4215 3.05385C12.5638 2.46823 12.8987 1.94739 13.3725 1.57494C13.8462 1.20248 14.4314 1 15.0341 1C15.6367 1 16.2219 1.20248 16.6957 1.57494C17.1695 1.94739 17.5044 2.46823 17.6466 3.05385C17.7464 3.46507 17.9419 3.84693 18.2171 4.16837C18.4923 4.48982 18.8394 4.74176 19.2304 4.90372C19.6213 5.06568 20.0449 5.13308 20.4668 5.10043C20.8887 5.06778 21.297 4.93601 21.6583 4.71583C22.173 4.40297 22.7777 4.27197 23.3757 4.34382C23.9737 4.41567 24.5302 4.68621 24.9561 5.11208C25.3819 5.53795 25.6525 6.09447 25.7243 6.69244C25.7962 7.29041 25.6652 7.89518 25.3523 8.40981C25.1321 8.77117 25.0004 9.1794 24.9677 9.60129C24.9351 10.0232 25.0025 10.4468 25.1644 10.8378C25.3264 11.2287 25.5783 11.5759 25.8998 11.8511C26.2212 12.1263 26.6031 12.3217 27.0143 12.4215C27.5999 12.5638 28.1207 12.8987 28.4932 13.3725C28.8657 13.8462 29.0681 14.4314 29.0681 15.0341C29.0681 15.6367 28.8657 16.2219 28.4932 16.6957C28.1207 17.1695 27.5999 17.5044 27.0143 17.6466C26.6031 17.7464 26.2212 17.9419 25.8998 18.2171C25.5783 18.4923 25.3264 18.8394 25.1644 19.2304C25.0025 19.6213 24.9351 20.0449 24.9677 20.4668C25.0004 20.8887 25.1321 21.297 25.3523 21.6583C25.6652 22.173 25.7962 22.7777 25.7243 23.3757C25.6525 23.9737 25.3819 24.5302 24.9561 24.9561C24.5302 25.3819 23.9737 25.6525 23.3757 25.7243C22.7777 25.7962 22.173 25.6652 21.6583 25.3523C21.297 25.1321 20.8887 25.0004 20.4668 24.9677C20.0449 24.9351 19.6213 25.0025 19.2304 25.1644C18.8394 25.3264 18.4923 25.5783 18.2171 25.8998C17.9419 26.2212 17.7464 26.6031 17.6466 27.0143C17.5044 27.5999 17.1695 28.1207 16.6957 28.4932C16.2219 28.8657 15.6367 29.0681 15.0341 29.0681C14.4314 29.0681 13.8462 28.8657 13.3725 28.4932C12.8987 28.1207 12.5638 27.5999 12.4215 27.0143C12.3217 26.6031 12.1263 26.2212 11.8511 25.8998C11.5759 25.5783 11.2287 25.3264 10.8378 25.1644C10.4468 25.0025 10.0232 24.9351 9.60129 24.9677C9.1794 25.0004 8.77117 25.1321 8.40981 25.3523C7.89518 25.6652 7.29041 25.7962 6.69244 25.7243C6.09447 25.6525 5.53795 25.3819 5.11208 24.9561C4.68621 24.5302 4.41567 23.9737 4.34382 23.3757C4.27197 22.7777 4.40297 22.173 4.71583 21.6583C4.93601 21.297 5.06778 20.8887 5.10043 20.4668C5.13308 20.0449 5.06568 19.6213 4.90372 19.2304C4.74176 18.8394 4.48982 18.4923 4.16837 18.2171C3.84693 17.9419 3.46507 17.7464 3.05385 17.6466C2.46823 17.5044 1.94739 17.1695 1.57494 16.6957C1.20248 16.2219 1 15.6367 1 15.0341C1 14.4314 1.20248 13.8462 1.57494 13.3725C1.94739 12.8987 2.46823 12.5638 3.05385 12.4215C3.46507 12.3217 3.84693 12.1263 4.16837 11.8511C4.48982 11.5759 4.74176 11.2287 4.90372 10.8378C5.06568 10.4468 5.13308 10.0232 5.10043 9.60129C5.06778 9.1794 4.93601 8.77117 4.71583 8.40981C4.40297 7.89518 4.27197 7.29041 4.34382 6.69244C4.41567 6.09447 4.68621 5.53795 5.11208 5.11208C5.53795 4.68621 6.09447 4.41567 6.69244 4.34382C7.29041 4.27197 7.89518 4.40297 8.40981 4.71583C8.77117 4.93601 9.1794 5.06778 9.60129 5.10043C10.0232 5.13308 10.4468 5.06568 10.8378 4.90372C11.2287 4.74176 11.5759 4.48982 11.8511 4.16837C12.1263 3.84693 12.3217 3.46507 12.4215 3.05385Z" stroke="white" stroke-width="2" stroke-linecap="round" stroke-linejoin="round"/>
<path d="M21.0221 15.0325C21.0221 16.2168 20.6709 17.3744 20.013 18.3591C19.3551 19.3437 18.4199 20.1112 17.3259 20.5644C16.2318 21.0176 15.0279 21.1361 13.8664 20.9051C12.7049 20.6741 11.638 20.1038 10.8006 19.2664C9.96323 18.429 9.39296 17.3621 9.16193 16.2007C8.93089 15.0392 9.04947 13.8353 9.50266 12.7412C9.95585 11.6471 10.7233 10.7119 11.708 10.054C12.6926 9.39609 13.8503 9.04492 15.0345 9.04492C15.8208 9.04492 16.5994 9.1998 17.3259 9.5007C18.0523 9.80161 18.7124 10.2427 19.2684 10.7987C19.8244 11.3547 20.2654 12.0147 20.5663 12.7412C20.8672 13.4676 21.0221 14.2462 21.0221 15.0325Z" stroke="white" stroke-width="2" stroke-linecap="round" stroke-linejoin="round"/>
</g>
</svg>
