<svg width="18" height="17" viewBox="0 0 18 17" fill="none" xmlns="http://www.w3.org/2000/svg">
<path d="M17.953 6.42404C17.8955 6.24825 17.7867 6.09304 17.6403 5.97777C17.4938 5.86249 17.3162 5.79224 17.1295 5.77577L11.9342 5.31083L9.87984 0.572006C9.72832 0.224728 9.38336 0 9.00007 0C8.61679 0 8.27179 0.224762 8.12034 0.572872L6.06597 5.31086L0.869849 5.77577C0.683381 5.79261 0.506027 5.86301 0.359775 5.97824C0.213523 6.09348 0.104806 6.24848 0.0471024 6.42404C-0.0714122 6.78327 0.0380319 7.17726 0.326848 7.42561L4.2539 10.8197L3.09589 15.8468C3.01116 16.2165 3.15671 16.5986 3.46792 16.8202C3.63517 16.9394 3.83089 17 4.02822 17C4.19838 17 4.36714 16.9548 4.51867 16.8655L9.00007 14.2258L13.4799 16.8655C13.8077 17.0598 14.2209 17.0421 14.5314 16.8202C14.6834 16.7118 14.7997 16.5617 14.8659 16.3887C14.932 16.2156 14.9451 16.0272 14.9034 15.8468L13.7455 10.8197L17.6725 7.42631C17.8138 7.30471 17.9157 7.14489 17.9655 6.96671C18.0154 6.78852 18.0111 6.59981 17.953 6.42404Z" fill="#FFC107"/>
</svg>
