<svg width="57" height="57" viewBox="0 0 57 57" fill="none" xmlns="http://www.w3.org/2000/svg">
<circle cx="28.5" cy="28.5" r="28.5" fill="#284D4F"/>
<path d="M43 19.7228C41.9216 20.1846 40.7724 20.4907 39.5744 20.6393C40.8069 19.921 41.7476 18.7922 42.1898 17.4317C41.0407 18.1005 39.7719 18.5728 38.4198 18.8365C37.3287 17.7024 35.7736 17 34.0771 17C30.7856 17 28.1357 19.6078 28.1357 22.8048C28.1357 23.2648 28.1756 23.7072 28.2734 24.1282C23.3307 23.8929 18.9572 21.5805 16.0191 18.058C15.5062 18.9267 15.2053 19.921 15.2053 20.9914C15.2053 23.0012 16.2656 24.7828 17.8461 25.8143C16.8909 25.7966 15.9539 25.5259 15.16 25.0995V25.1632C15.16 27.9834 17.2208 30.3258 19.9232 30.8655C19.4393 30.9946 18.9119 31.0565 18.3645 31.0565C17.9839 31.0565 17.5996 31.0353 17.2389 30.9575C18.0092 33.2557 20.1951 34.9453 22.7943 35.0002C20.7715 36.5447 18.2032 37.4753 15.4228 37.4753C14.9353 37.4753 14.4676 37.4541 14 37.3957C16.6336 39.0535 19.7547 40 23.1205 40C34.0607 40 40.042 31.1538 40.042 23.486C40.042 23.2295 40.0329 22.9818 40.0203 22.7358C41.2002 21.9185 42.1916 20.8976 43 19.7228Z" fill="url(#paint0_linear_42_1608)"/>
<defs>
<linearGradient id="paint0_linear_42_1608" x1="16" y1="21.37" x2="42.6508" y2="22.2896" gradientUnits="userSpaceOnUse">
<stop stop-color="#FC8342"/>
<stop offset="1" stop-color="#E54437"/>
</linearGradient>
</defs>
</svg>
