<svg width="33" height="32" viewBox="0 0 33 32" fill="none" xmlns="http://www.w3.org/2000/svg">
<path d="M12.2887 28C9.05374 28 6.03817 27.0591 3.5 25.4356C5.65499 25.5751 9.45807 25.2411 11.8236 22.9848C8.26508 22.8215 6.66026 20.0923 6.45094 18.926C6.75329 19.0426 8.1953 19.1826 9.00934 18.856C4.9159 17.8296 4.28793 14.2373 4.42748 13.141C5.195 13.6775 6.49745 13.8641 7.00913 13.8174C3.19479 11.0882 4.56703 6.98276 5.24151 6.09635C7.97882 9.88867 12.0812 12.0186 17.1564 12.137C17.0607 11.7174 17.0102 11.2804 17.0102 10.8316C17.0102 7.61092 19.6134 5 22.8247 5C24.5025 5 26.0144 5.71275 27.0757 6.85284C28.1969 6.59011 29.8843 5.97507 30.7092 5.4432C30.2934 6.93611 28.9989 8.18149 28.2159 8.64308C28.2095 8.62731 28.2224 8.65878 28.2159 8.64308C28.9037 8.53904 30.7648 8.18137 31.5 7.68256C31.1364 8.52125 29.764 9.91573 28.6377 10.6964C28.8473 19.9381 21.7765 28 12.2887 28Z" fill="#47ACDF"/>
</svg>
