<svg width="46" height="46" viewBox="0 0 46 46" fill="none" xmlns="http://www.w3.org/2000/svg">
<g filter="url(#filter0_d_389_1808)">
<path d="M32 4H14C10.6863 4 8 6.68629 8 10V28C8 31.3137 10.6863 34 14 34H32C35.3137 34 38 31.3137 38 28V10C38 6.68629 35.3137 4 32 4Z" fill="#FCFCFC"/>
</g>
<path opacity="0.5" d="M28.75 26H18.25C17.6533 26 17.081 25.7629 16.659 25.341C16.2371 24.919 16 24.3467 16 23.75V13.25C16 12.6533 16.2371 12.081 16.659 11.659C17.081 11.2371 17.6533 11 18.25 11H28.75C29.3467 11 29.919 11.2371 30.341 11.659C30.7629 12.081 31 12.6533 31 13.25V23.75C31 24.3467 30.7629 24.919 30.341 25.341C29.919 25.7629 29.3467 26 28.75 26ZM26.5 21.5V24.5H28.75C28.9489 24.5 29.1397 24.421 29.2803 24.2803C29.421 24.1397 29.5 23.9489 29.5 23.75V21.5H26.5ZM22 21.5V24.5H25V21.5H22ZM17.5 21.5V23.75C17.5 23.9489 17.579 24.1397 17.7197 24.2803C17.8603 24.421 18.0511 24.5 18.25 24.5H20.5V21.5H17.5ZM26.5 17V20H29.5V17H26.5ZM22 17V20H25V17H22ZM17.5 17V20H20.5V17H17.5ZM26.5 12.5V15.5H29.5V13.25C29.5 13.0511 29.421 12.8603 29.2803 12.7197C29.1397 12.579 28.9489 12.5 28.75 12.5H26.5ZM22 12.5V15.5H25V12.5H22ZM18.25 12.5C18.0511 12.5 17.8603 12.579 17.7197 12.7197C17.579 12.8603 17.5 13.0511 17.5 13.25V15.5H20.5V12.5H18.25Z" fill="#1C3659"/>
<defs>
<filter id="filter0_d_389_1808" x="0" y="0" width="46" height="46" filterUnits="userSpaceOnUse" color-interpolation-filters="sRGB">
<feFlood flood-opacity="0" result="BackgroundImageFix"/>
<feColorMatrix in="SourceAlpha" type="matrix" values="0 0 0 0 0 0 0 0 0 0 0 0 0 0 0 0 0 0 127 0" result="hardAlpha"/>
<feOffset dy="4"/>
<feGaussianBlur stdDeviation="4"/>
<feColorMatrix type="matrix" values="0 0 0 0 0 0 0 0 0 0 0 0 0 0 0 0 0 0 0.102 0"/>
<feBlend mode="normal" in2="BackgroundImageFix" result="effect1_dropShadow_389_1808"/>
<feBlend mode="normal" in="SourceGraphic" in2="effect1_dropShadow_389_1808" result="shape"/>
</filter>
</defs>
</svg>
