<svg width="22" height="21" viewBox="0 0 22 21" fill="none" xmlns="http://www.w3.org/2000/svg">
<path d="M21.7679 8.73755L16.9467 13.445L18.0852 20.0938C18.1096 20.2364 18.0937 20.3829 18.0393 20.5169C17.9849 20.6509 17.8941 20.767 17.7772 20.852C17.6604 20.937 17.5222 20.9876 17.3781 20.998C17.2341 21.0084 17.09 20.9783 16.9622 20.9109L11.0009 17.7718L5.04037 20.9102C4.91254 20.9775 4.76847 21.0076 4.62443 20.9972C4.48039 20.9868 4.34214 20.9362 4.2253 20.8512C4.10846 20.7662 4.01769 20.6501 3.96326 20.5161C3.90883 20.3822 3.89291 20.2356 3.9173 20.093L5.05585 13.4443L0.23387 8.73755C0.13037 8.63655 0.0571659 8.50854 0.0225441 8.36801C-0.0120777 8.22748 -0.00673443 8.08006 0.0379691 7.94242C0.0826727 7.80478 0.164951 7.68242 0.275491 7.5892C0.38603 7.49597 0.520416 7.43561 0.663436 7.41493L7.32674 6.44584L10.3066 0.397135C10.5674 -0.132378 11.4343 -0.132378 11.6952 0.397135L14.675 6.44584L21.3383 7.41493C21.481 7.43615 21.615 7.49681 21.7252 7.5901C21.8353 7.68339 21.9173 7.80561 21.962 7.94302C22.0066 8.08043 22.0121 8.22758 21.9778 8.36794C21.9435 8.5083 21.8708 8.6363 21.7679 8.73755Z" fill="#FF8A43"/>
</svg>
