<svg width="19" height="4" viewBox="0 0 19 4" fill="none" xmlns="http://www.w3.org/2000/svg">
<g opacity="0.3">
<path d="M18.3383 0.994153C17.4559 0.306525 16.0254 0.306525 15.1431 0.994153C14.2608 1.68178 14.2608 2.79665 15.1431 3.48428C16.0254 4.17191 17.4559 4.17191 18.3383 3.48428C19.2206 2.79668 19.2206 1.68181 18.3383 0.994153Z" fill="#030229"/>
<path d="M11.5604 0.994153C10.6781 0.306525 9.2476 0.306525 8.36528 0.994153C7.48297 1.68178 7.48297 2.79665 8.36528 3.48428C9.2476 4.17191 10.6781 4.17191 11.5604 3.48428C12.4427 2.79668 12.4427 1.68181 11.5604 0.994153Z" fill="#030229"/>
<path d="M4.78236 0.994153C3.90004 0.306525 2.46952 0.306525 1.5872 0.994153C0.70489 1.68178 0.70489 2.79665 1.5872 3.48428C2.46952 4.17191 3.90004 4.17191 4.78236 3.48428C5.66467 2.79668 5.66467 1.68181 4.78236 0.994153Z" fill="#030229"/>
</g>
</svg>
