<svg width="18" height="24" viewBox="0 0 18 24" fill="none" xmlns="http://www.w3.org/2000/svg">
<path d="M9 13C9.41421 13 9.75 12.5523 9.75 12C9.75 11.4477 9.41421 11 9 11C8.58579 11 8.25 11.4477 8.25 12C8.25 12.5523 8.58579 13 9 13Z" stroke="#25282C" stroke-width="2" stroke-linecap="round" stroke-linejoin="round"/>
<path d="M9 6C9.41421 6 9.75 5.55228 9.75 5C9.75 4.44772 9.41421 4 9 4C8.58579 4 8.25 4.44772 8.25 5C8.25 5.55228 8.58579 6 9 6Z" stroke="#25282C" stroke-width="2" stroke-linecap="round" stroke-linejoin="round"/>
<path d="M9 20C9.41421 20 9.75 19.5523 9.75 19C9.75 18.4477 9.41421 18 9 18C8.58579 18 8.25 18.4477 8.25 19C8.25 19.5523 8.58579 20 9 20Z" stroke="#25282C" stroke-width="2" stroke-linecap="round" stroke-linejoin="round"/>
</svg>
